<?xml version="1.0" encoding="utf-8"?>
<!-- Generator: Adobe Illustrator 27.5.0, SVG Export Plug-In . SVG Version: 6.00 Build 0)  -->
<svg version="1.1" id="Layer_1" xmlns="http://www.w3.org/2000/svg" xmlns:xlink="http://www.w3.org/1999/xlink" x="0px" y="0px"
	 viewBox="0 0 612 792" style="enable-background:new 0 0 612 792;" xml:space="preserve">
<style type="text/css">
	.st0{stroke:#000000;stroke-miterlimit:10;}
</style>
<rect width="380" height="400" x="110" y="125" fill="white"/>
<path class="st0" d="M305.99,132.32c-78.35,0-141.89,63.53-141.89,141.89c0,4.03,0.18,8.01,0.5,11.95l6.45,32.05
	c0.02,0.01,0.02,0.02,0.02,0.03l10.8,53.79l5.91,29.33c17.73,65.75,62.38,112.41,114.68,112.41c46.26,0,86.57-36.54,107.51-90.52
	c0.01-0.02,0.02-0.04,0.02-0.06l9.93-33.39c0.65-3.02,1.24-6.07,1.78-9.15l0.01-0.05c0.17-0.98,0.33-1.97,0.49-2.96l12.82-44.26
	l11.59-40.07c0.85-6.25,1.29-12.62,1.29-19.1C447.9,195.85,384.36,132.32,305.99,132.32z M282.17,341.87
	c-9.82-1.56-20.51-5.18-31-10.86c-17.81-9.64-30.95-23.01-36.58-35.66c13.21-6.97,29.54-7.42,43.66,0.23
	C275.46,304.9,284.4,323.55,282.17,341.87z M360.83,331.11c-10.49,5.68-21.18,9.3-31,10.86c-2.23-18.32,6.71-36.97,23.92-46.29
	c14.12-7.65,30.45-7.2,43.66-0.23C391.78,308.1,378.64,321.47,360.83,331.11z M504.53,522.53h-398.3v-398.3h398.3V522.53z
	 M447.9,280.23l-18.18,90.38"/>
</svg>
